<?xml version="1.0" encoding="UTF-8" standalone="no"?>
<svg
   width="424"
   height="56"
   viewBox="0 0 424 56"
   version="1.1"
   id="svg7"
   xmlns="http://www.w3.org/2000/svg">
  <defs
     id="def11" />
  <g
     id="layer1"
     transform="matrix(3.8376457,0,0,3.8454691,-2.6545701,-1.7737628)">
    <ellipse
       style="fill:#ffc300;fill-opacity:1;stroke-width:1.20726"
       id="path185"
       cx="11.999953"
       cy="4"
       rx="3.0234685"
       ry="3.0000932" />
    <circle
       style="fill:#ff1c1c;fill-opacity:1;stroke-width:1.21003"
       id="path185-3"
       cx="4.0093236"
       cy="4"
       r="3.018647" />
    <circle
       style="fill:#3a9b00;fill-opacity:1;stroke-width:1.22166"
       id="path185-6"
       cx="4"
       cy="11.976148"
       r="3.0477052" />
    <circle
       style="fill:#00a4e1;fill-opacity:1;stroke-width:1.19988"
       id="path185-7"
       cx="11.980082"
       cy="11.993361"
       r="2.9933605" />
  </g>
  <g
     aria-label="Emulator"
     transform="scale(1.0375014,0.96385413)"
     id="text350"
     style="fill:#232629;fill-opacity:0.91;stroke-width:0">
    <path
       d="M 106.04882,56.335003 H 76.144499 V 4.3844322 H 106.04882 V 13.40666 H 87.131244 v 11.423305 h 17.607896 v 9.022228 H 87.131244 v 13.387822 h 18.917576 z"
       id="path2300" />
    <path
       d="m 162.65598,15.880497 q 6.76667,0 10.18639,3.492475 3.49248,3.419716 3.49248,11.059505 V 56.335003 H 165.49362 V 33.124594 q 0,-8.585669 -5.96631,-8.585669 -4.29284,0 -6.11183,3.055916 -1.819,3.055916 -1.819,8.803948 V 56.335003 H 140.75525 V 33.124594 q 0,-8.585669 -5.96631,-8.585669 -4.51111,0 -6.25735,3.419716 -1.67348,3.346955 -1.67348,9.677067 V 56.335003 H 116.01689 V 16.608096 h 8.29463 l 1.45519,5.093193 h 0.58208 q 1.819,-3.055916 4.94768,-4.438354 3.20143,-1.382438 6.62115,-1.382438 4.36559,0 7.42151,1.455198 3.05591,1.382438 4.65663,4.365594 h 0.94588 q 1.819,-3.055916 5.02043,-4.438354 3.2742,-1.382438 6.69391,-1.382438 z"
       id="path2302" />
    <path
       d="m 223.91985,16.608096 v 39.726907 h -8.29463 l -1.4552,-5.093193 h -0.58208 q -1.89176,3.055916 -5.23871,4.438354 -3.2742,1.382438 -6.98495,1.382438 -6.40288,0 -10.25915,-3.419716 -3.85627,-3.492475 -3.85627,-11.132265 V 16.608096 h 10.84122 v 23.210409 q 0,4.220074 1.52796,6.402871 1.52796,2.182797 4.87491,2.182797 4.94768,0 6.76667,-3.346955 1.819,-3.419715 1.819,-9.749827 V 16.608096 Z"
       id="path2304" />
    <path
       d="M 246.11158,56.335003 H 235.27036 V 1.0374767 h 10.84122 z"
       id="path2306" />
    <path
       d="m 273.76038,15.807737 q 8.00359,0 12.22366,3.492475 4.29284,3.419716 4.29284,10.550186 v 26.484605 h -7.56703 l -2.11004,-5.384233 h -0.29104 q -2.5466,3.201436 -5.38423,4.656634 -2.83764,1.455198 -7.78531,1.455198 -5.31148,0 -8.80395,-3.055916 -3.49248,-3.128676 -3.49248,-9.531547 0,-6.330112 4.43836,-9.313268 4.43835,-3.055916 13.31506,-3.346955 l 6.91219,-0.21828 v -1.746238 q 0,-3.128676 -1.67348,-4.583874 -1.60071,-1.455198 -4.51111,-1.455198 -2.9104,0 -5.67527,0.873119 -2.76488,0.800359 -5.52976,2.037277 l -3.56523,-7.34875 q 3.20143,-1.673478 7.05771,-2.619356 3.92903,-0.945879 8.14911,-0.945879 z m 1.52796,22.26453 q -5.23872,0.14552 -7.27599,1.891758 -2.03728,1.746237 -2.03728,4.583874 0,2.473836 1.4552,3.565235 1.4552,1.018639 3.78351,1.018639 3.49248,0 5.89355,-2.037278 2.40108,-2.110037 2.40108,-5.893552 v -3.274196 z"
       id="path2308" />
    <path
       d="m 318.14391,48.404173 q 1.819,0 3.49248,-0.363799 1.67348,-0.3638 3.34695,-0.873119 v 8.076349 q -1.74623,0.727599 -4.36559,1.236919 -2.5466,0.582079 -5.60251,0.582079 -3.56524,0 -6.40287,-1.164159 -2.76488,-1.164158 -4.43836,-4.001794 -1.60072,-2.910396 -1.60072,-8.00359 V 24.757205 h -5.16595 v -4.583874 l 5.96631,-3.637995 3.12868,-8.3673889 h 6.91219 v 8.4401489 h 11.13227 v 8.149109 h -11.13227 v 19.135854 q 0,2.255557 1.30968,3.419716 1.30968,1.091398 3.41971,1.091398 z"
       id="path2310" />
    <path
       d="m 369.07587,36.398789 q 0,9.895347 -5.23872,15.27958 -5.16595,5.384233 -14.11542,5.384233 -5.52975,0 -9.89534,-2.401077 -4.29284,-2.401077 -6.76667,-6.984951 -2.47384,-4.656633 -2.47384,-11.277785 0,-9.895346 5.16595,-15.206819 5.16596,-5.311473 14.18818,-5.311473 5.60252,0 9.89535,2.401077 4.29283,2.401076 6.76667,6.98495 2.47384,4.511114 2.47384,11.132265 z m -27.43049,0 q 0,5.893553 1.89176,8.949469 1.96452,2.983156 6.33011,2.983156 4.29284,0 6.1846,-2.983156 1.96451,-3.055916 1.96451,-8.949469 0,-5.893552 -1.96451,-8.803948 -1.89176,-2.983156 -6.25736,-2.983156 -4.29283,0 -6.25735,2.983156 -1.89176,2.910396 -1.89176,8.803948 z"
       id="path2312" />
    <path
       d="m 400.21706,15.880497 q 0.80036,0 1.89175,0.07276 1.0914,0.07276 1.74624,0.218279 l -0.80036,10.186387 q -0.50932,-0.14552 -1.52796,-0.21828 -0.94587,-0.14552 -1.67347,-0.14552 -2.76488,0 -5.31148,1.018639 -2.54659,0.945879 -4.14731,3.128676 -1.52796,2.182797 -1.52796,5.966312 V 56.335003 H 378.02529 V 16.608096 h 8.22187 l 1.60071,6.693911 h 0.50932 q 1.74624,-3.055916 4.80216,-5.238713 3.05591,-2.182797 7.05771,-2.182797 z"
       id="path2314" />
  </g>
</svg>
